<svg width="31" height="22" viewBox="0 0 31 22" fill="none" xmlns="http://www.w3.org/2000/svg">
<path fill-rule="evenodd" clip-rule="evenodd" d="M1.81644 4.93827C1.81638 5.76685 2.14583 6.56151 2.73231 7.14743C3.3188 7.73336 4.11426 8.06256 4.94373 8.06261C5.77319 8.06267 6.5687 7.73357 7.15525 7.14771C7.74181 6.56186 8.07136 5.76725 8.07141 4.93867C8.07146 4.1101 7.74201 3.31544 7.15553 2.72951C6.56905 2.14359 5.77358 1.81439 4.94412 1.81433C4.11466 1.81428 3.31915 2.14338 2.7326 2.72923C2.14604 3.31508 1.81649 4.1097 1.81644 4.93827ZM4.94361 9.87663C3.88519 9.87644 2.85478 9.53692 2.00397 8.90802C1.15316 8.27912 0.526877 7.39404 0.217265 6.383C-0.0923466 5.37196 -0.0689399 4.28835 0.284042 3.2916C0.637023 2.29484 1.30094 1.43758 2.17812 0.845918C3.05529 0.25426 4.09941 -0.0405458 5.15685 0.00487441C6.21429 0.0502947 7.22922 0.433543 8.05231 1.09823C8.87541 1.76292 9.46321 2.67396 9.72923 3.6973C9.99526 4.72064 9.92546 5.80226 9.53012 6.78301L11.4751 8.08117C11.4609 8.12661 11.4474 8.1723 11.4348 8.21822L11.124 9.32677L10.4117 9.8024L8.40613 8.46393C7.51424 9.33662 6.29146 9.87672 4.94361 9.87663ZM1.81567 17.062C1.81572 16.2334 2.14527 15.4388 2.73183 14.8529C3.31838 14.2671 4.11389 13.938 4.94335 13.938C5.77281 13.9381 6.56828 14.2673 7.15476 14.8532C7.74124 15.4391 8.07069 16.2338 8.07064 17.0624C8.07059 17.8909 7.74104 18.6855 7.15448 19.2714C6.56793 19.8572 5.77242 20.1863 4.94296 20.1863C4.11349 20.1862 3.31803 19.857 2.73155 19.2711C2.14506 18.6852 1.81561 17.8905 1.81567 17.062ZM4.94347 12.124C3.88598 12.124 2.85638 12.4628 2.00589 13.0906C1.1554 13.7184 0.528851 14.6021 0.218271 15.6118C-0.0923084 16.6216 -0.0705497 17.7043 0.280351 18.7008C0.631253 19.6973 1.2928 20.5551 2.16783 21.1483C3.04286 21.7414 4.08524 22.0387 5.14188 21.9963C6.19852 21.954 7.21371 21.5743 8.03836 20.913C8.86301 20.2517 9.45363 19.3437 9.72349 18.3223C9.99335 17.3009 9.92821 16.22 9.53765 15.2384L30.1658 1.50056L28.2469 1.6586C25.5409 1.94286 22.9205 2.7709 20.5431 4.09292L14.3383 7.53916C14.1053 7.66917 13.9004 7.84406 13.7356 8.05372C13.5707 8.26337 13.4491 8.50361 13.3778 8.76054L12.8672 10.5866L8.42195 13.5553C7.49759 12.6374 6.24683 12.1227 4.94347 12.124ZM14.3137 14.4727L14.3379 14.4868L20.5422 17.9339C22.9194 19.2562 25.5398 20.0846 28.2458 20.3692L27.9686 19.0071L25.3466 17.362L17.6754 12.2256L14.3137 14.4727Z" fill="#8162FF"/>
</svg>
